<?xml version="1.0" encoding="UTF-8"?>
<svg width="210mm" height="297mm" version="1.1" viewBox="0 0 744.09448819 1052.3622047" xmlns="http://www.w3.org/2000/svg">
 <g transform="translate(22.995 .056012)">
  <path d="m393.78 163.27c13.585 36.201 15.383 65.923 10.568 91.469-1.6762 8.8933-4.1836 17.357-7.3144 25.52-11.375-9.4825-20.891-19.759-28.016-31.307-8.273-13.409-13.464-28.75-14.422-46.805-0.9574 18.05 2.3255 34.365 9.3574 49.514 6.581 14.177 16.347 27.112 28.578 39.262-5.173 11.188-11.454 21.859-18.336 32.33-0.13432 0.20437-0.26095 0.39109-0.39453 0.59375-13.075-3.3146-24.136-8.6607-33.539-15.668-10.196-7.5979-18.546-17.222-25.344-28.436-13.677-22.56-20.596-50.745-24.041-79.428 0.38794 28.528 4.2551 58.327 15.979 83.697 3.233 6.9965 7.0942 13.713 11.686 20.008-17.093 1.2494-31.695-3.3314-45.35-11.43-16.243-9.6333-30.695-23.928-45.967-38.324 14.238 15.104 28.072 30.56 43.979 41.439 14.726 10.073 31.588 16.473 52.572 14.93 2.3866 2.7765 4.9392 5.4498 7.6719 8.0059 8.7944 8.2261 19.37 15.164 31.98 20.355-11.49 16.2-21.338 28.356-35.672 49.828-9.1986 13.78-18.093 28.669-25.531 45.111-14.477-7.4683-27.453-16.626-38.77-27.33 6.5972-12.015 8.1478-24.489 7.334-36.434-0.93503-13.722-5.0446-27.639-9.1152-40.693 1.6744 13.897 3.1205 27.665 1.5527 40.523-1.2132 9.9496-4.1738 18.725-9.6504 26.381-3.5727-4.0464-6.9498-8.2649-10.098-12.674-17.446-24.435-28.328-54.475-30.809-88.723-2.4717 34.124 3.4234 66.946 18.053 96.326 13.341 26.793 33.873 50.525 61.377 69.225-1.016 3.2846-1.978 6.6161-2.8516 10.021-5.6318 23.069-6.0903 46.407-3.4824 69.514-16.313-6.0084-31.586-14.59-45.771-25.432-11.53-8.8117-22.256-19.059-32.141-30.461 3.8095-4.2414 6.6189-8.8173 8.6172-13.57 2.7099-6.4456 3.93-13.159 4.3066-19.777 0.7595-13.345-1.8896-27.462-3.9805-39.883-0.31492 13.03-0.21021 26.595-3.2754 38.809-1.4797 5.8962-3.6363 11.185-6.7207 15.77-2.0568 3.0572-4.537 5.7939-7.5098 8.2168-5.0006-6.4346-9.7627-13.168-14.266-20.18-12.828-19.973-23.448-41.88-31.771-64.557 12.609-11.222 23.502-25.168 31.061-39.799 7.78-15.06 11.997-30.779 11.008-44.961-0.97906 14.03-7.07 28.663-16.086 41.951-8.0727 11.898-18.55 22.788-29.977 31.318-9.7845-29.678-15.697-60.319-17.541-89.391-2.8415 44.797 3.9847 95.905 21.311 143.49-7.0071 0.27426-13.078-0.33389-18.424-1.6875-7.3894-1.871-13.689-5.2085-19.4-9.8535-11.664-9.4862-20.175-23.777-30.137-40.02 7.6942 16.787 14.6 33.087 25.471 44.936 5.5536 6.0536 12.275 11.117 20.848 14.574 7.532 3.0371 16.301 4.7526 26.629 4.9023 2.6891 6.5505 5.5732 13.018 8.6777 19.369 9.9348 20.323 22.12 39.697 36.703 57.08-11.538 5.6649-22.657 9.0709-33.549 10.689-13.143 1.953-26.087 1.3322-39.152-1.1387-26.355-4.9842-52.178-17.261-79.928-29.672 26.137 14.509 51.525 29.541 78.105 37.252 13.411 3.8904 27.364 5.9994 42.127 5.1914 13.692-0.74942 27.958-4.009 42.963-10.547 1.7914 1.8701 3.602 3.7229 5.457 5.5332 20.734 20.235 45.639 36.787 74.912 47.141 0.69522 2.7368 1.4097 5.468 2.1504 8.1875 10.097 37.072 27.346 82.013 37.32 115.41 5.4544 18.261 9.626 35.407 11.797 51.66 2.1671 16.225 2.2376 30.845-0.0332 44.207-1.8288 10.761-5.1952 20.83-10.344 30.447-4.5575 8.5129-50.938 58.652-68.564 76.906h122.96c8.3793-14.24 11.195-29.636 17.258-44.383 7.5989-18.483 11.517-37.027 12.678-55.344 1.4176-22.372-1.2947-44.092-6.0957-64.693-4.79-20.555-11.822-40.664-19.488-59.883-9.1932-23.046-18.127-42.511-26.691-61.75 24.591-5.8064 47.858-15.661 69.098-28.438 19.244-11.576 36.973-25.636 52.746-41.451 27.689 12.518 56.099 14.683 83.139 10.4 28.776-4.557 56.433-16.468 80.838-31.543-25.692 13.097-53.649 22.424-81.662 24.516-24.915 1.8604-49.498-2.0255-72.518-13.695 4.6724-5.1807 9.1511-10.512 13.402-15.988 13.901-17.907 25.506-37.342 34.34-57.627 15.044-3.8205 27.537-13.668 37.426-24.336 10.877-11.734 19.324-25.23 25.041-35.078-7.3147 8.9511-17.039 21.049-28.836 31.137-8.9751 7.6745-18.681 13.762-28.893 16.611 2.3426-6.2179 4.4354-12.498 6.2383-18.83 8.9187-31.325 11.002-63.589 4.9062-94.68 2.2566 31.512-3.8479 62.427-15.824 90.85-8.6668 20.568-20.47 39.94-34.578 57.451-5.3141-9.6092-9.1212-19.584-11.633-30.121-3.2219-13.517-4.2925-27.825-3.7754-43.207-2.9508 15.014-4.419 29.691-3.5274 44.275 0.82162 13.438 3.6601 26.869 9.2207 40.43-2.4405 2.691-4.9316 5.3338-7.4805 7.916-21.858 22.145-47.472 40.083-74.742 52.252-0.36241 0.16171-0.727 0.31305-1.0898 0.47266-2.8251-8.628-4.0512-18.82-3.0703-28.564 1.2174-12.094 5.8525-23.752 15.477-30.578-10.943 5.1416-18.149 16.236-21.723 29.398-2.9531 10.878-3.3898 23.102-1.4902 34.16-19.275 7.2824-39.018 11.595-58.59 12.611-0.912-2.36-1.8176-4.7469-2.7168-7.168-9.827-26.461-16.45-51.467-17.248-75.357 18.474 2.0834 35.488 0.69427 50.996-3.2637 18.886-4.8199 35.404-13.399 49.652-23.945 28.375-21.003 48.416-50.302 60.795-75.475-15.583 23.72-37.897 49.703-66.623 66.729-9.242 5.4776-19.067 9.9708-29.459 13.184-1.9891-11.223-1.6725-20.378 0.8164-28.66 2.8406-9.452 8.5485-18.007 16.949-27.137-9.7177 7.3668-17.653 14.885-22.969 24.588-5.076 9.2661-7.6369 20.277-7.1426 34.346-1.7284 0.34594-3.4674 0.66446-5.2246 0.9375-14.56 2.2624-30.199 1.9846-46.977-1.5996 0.10919-0.91985 0.22752-1.8392 0.35743-2.7559 3.4701-26.413 12.61-50.18 24.402-74.061 0.33446-0.67733 0.72521-1.4229 1.0723-2.1152 29.602-5.8258 55.931-15.096 78.607-27.838 17.624 7.5332 35.047 8.3084 50.799 4.1465 16.599-4.3858 31.344-14.217 43.041-27.41-13.272 11.767-28.599 19.126-44.273 21.164-12.385 1.6105-24.945-0.10447-37.117-5.4941 12.932-8.5423 24.494-18.363 34.582-29.488 30.608-33.758 47.106-78.73 48.947-134.74-5.6419 56.081-25.855 97.821-57.037 126.77-0.69628 0.64633-1.4054 1.2799-2.1133 1.9141-7.4502-15.066-12.126-32.536-13.229-49.465-1.2248-18.804 1.9381-37.023 10.637-50.449-9.9788 12.71-14.789 30.94-14.998 50.568-0.19515 18.319 3.6153 37.807 10.943 54.996-25.506 20.508-57.737 33.916-95.838 40.729 8.2296-15.199 17.004-31.138 23.373-44.457 11.681-24.427 20.613-49.612 22.156-77.689 0.34115-6.2066 0.2963-12.524-0.1289-18.965 16.69-5.796 26.672-16.215 33.643-28.307 7.1332-12.374 11.468-27.11 16.734-41.312-6.8092 13.928-12.381 27.605-20.58 38.816-7.4842 10.234-16.807 17.875-30.648 21.736-2.4558-19.963-8.7846-41.253-20.119-64.67z"/>
  <path d="m522.88 567.92a35.315 35.074 0 0 0 -11.864 31.315 35.315 35.074 0 0 0 20.029 26.928 35.315 35.074 0 0 0 11.865 -31.315 35.315 35.074 0 0 0 -20.03 -26.928z" fill="#9acd32"/>
  <path d="m557.15 569.52a33.727 33.727 0 0 0 -4.5002 31.858 33.727 33.727 0 0 0 24.309 21.107 33.727 33.727 0 0 0 4.5013 -31.858 33.727 33.727 0 0 0 -24.31 -21.106z" fill="#9acd32"/>
  <path d="m587.98 564.78a29.013 29.013 0 0 0 -0.42066 27.674 29.013 29.013 0 0 0 23.014 15.405 29.013 29.013 0 0 0 0.42151 -27.674 29.013 29.013 0 0 0 -23.015 -15.404z" fill="#9acd32"/>
  <path d="m613.16 557.33a26.184 26.184 0 0 0 4.0099 24.655 26.184 26.184 0 0 0 22.888 10.041 26.184 26.184 0 0 0 -4.0093 -24.655 26.184 26.184 0 0 0 -22.889 -10.041z" fill="#9acd32"/>
  <path d="m685.9 508.83a23.927 23.927 0 0 0 -22.524 3.6976 23.927 23.927 0 0 0 -9.1447 20.928 23.927 23.927 0 0 0 22.524 -3.6969 23.927 23.927 0 0 0 9.1442 -20.929z" fill="#9acd32"/>
  <path d="m526.09 553.8a37.498 37.498 0 0 1 -0.54369 -35.768 37.498 37.498 0 0 1 29.745 -19.91 37.498 37.498 0 0 1 0.54479 35.768 37.498 37.498 0 0 1 -29.746 19.909z" fill="#9acd32"/>
  <path d="m563.12 557.49a33.727 33.727 0 0 1 -0.48901 -32.17 33.727 33.727 0 0 1 26.753 -17.908 33.727 33.727 0 0 1 0.49 32.171 33.727 33.727 0 0 1 -26.754 17.907z" fill="#9acd32"/>
  <path d="m601.01 552a29.013 29.013 0 0 1 -0.42066 -27.674 29.013 29.013 0 0 1 23.014 -15.405 29.013 29.013 0 0 1 0.42151 27.674 29.013 29.013 0 0 1 -23.015 15.404z" fill="#9acd32"/>
  <path d="m610.69 412.68a15.813 15.813 0 0 1 -0.22928 -15.083 15.813 15.813 0 0 1 12.544 -8.3962 15.813 15.813 0 0 1 0.22974 15.084 15.813 15.813 0 0 1 -12.544 8.3959z" fill="#9acd32"/>
  <path d="m573.75 459.03a22.838 22.838 0 0 0 10.742 18.954 22.838 22.838 0 0 0 21.762 1.2868 22.838 22.838 0 0 0 -10.742 -18.955 22.838 22.838 0 0 0 -21.762 -1.2862z" fill="#9acd32"/>
  <path d="m588.54 445.86a18.028 18.028 0 0 0 12.587 11.719 18.028 18.028 0 0 0 16.688 -4.1983 18.028 18.028 0 0 0 -12.587 -11.719 18.028 18.028 0 0 0 -16.689 4.1989z" fill="#9acd32"/>
  <path d="m603.19 427.45a15.022 15.022 0 0 0 10.488 9.7645 15.022 15.022 0 0 0 13.905 -3.4982 15.022 15.022 0 0 0 -10.488 -9.765 15.022 15.022 0 0 0 -13.906 3.4986z" fill="#9acd32"/>
  <path d="m573.8 444.91a22.838 22.838 0 0 1 -8.2548 -20.162 22.838 22.838 0 0 1 12.444 -17.899 22.838 22.838 0 0 1 8.2556 20.162 22.838 22.838 0 0 1 -12.445 17.899z" fill="#9acd32"/>
  <path d="m594.73 423.49a18.028 18.028 0 0 1 -8.2899 -15.068 18.028 18.028 0 0 1 8.1467 -15.158 18.028 18.028 0 0 1 8.2905 15.068 18.028 18.028 0 0 1 -8.1473 15.158z" fill="#9acd32"/>
  <path d="m562.14 345.9a15.022 15.022 0 0 1 -9.9843 -10.279 15.022 15.022 0 0 1 3.203 -13.976 15.022 15.022 0 0 1 9.9848 10.279 15.022 15.022 0 0 1 -3.2035 13.976z" fill="#9acd32"/>
  <path d="m543.74 440.73a24.633 24.633 0 0 1 -20.687 -11.147 24.633 24.633 0 0 1 -1.8889 -23.437 24.633 24.633 0 0 1 20.687 11.147 24.633 24.633 0 0 1 1.8882 23.438z" fill="#9acd32"/>
  <path d="m552.5 412.54a19.249 19.249 0 0 1 -16.165 -8.7104 19.249 19.249 0 0 1 -1.476 -18.314 19.249 19.249 0 0 1 16.165 8.71 19.249 19.249 0 0 1 1.4755 18.314z" fill="#9acd32"/>
  <path d="m558.23 387.15a15.771 15.771 0 0 1 -13.244 -7.1368 15.771 15.771 0 0 1 -1.2093 -15.005 15.771 15.771 0 0 1 13.245 7.1365 15.771 15.771 0 0 1 1.2089 15.006z" fill="#9acd32"/>
  <path d="m559.69 364.69a15.771 15.771 0 0 1 -13.244 -7.1368 15.771 15.771 0 0 1 -1.2093 -15.005 15.771 15.771 0 0 1 13.245 7.1365 15.771 15.771 0 0 1 1.2089 15.006z" fill="#9acd32"/>
  <path d="m567.23 399.02a19.249 19.249 0 0 0 17.693 -4.9122 19.249 19.249 0 0 0 5.4972 -17.532 19.249 19.249 0 0 0 -17.693 4.9118 19.249 19.249 0 0 0 -5.4967 17.532z" fill="#9acd32"/>
  <path d="m568.18 376.66a15.237 15.237 0 0 0 14.006 -3.8885 15.237 15.237 0 0 0 4.3516 -13.878 15.237 15.237 0 0 0 -14.006 3.8882 15.237 15.237 0 0 0 -4.3512 13.878z" fill="#9acd32"/>
  <path d="m566.23 358.62a14.435 14.435 0 0 0 13.268 -3.6838 14.435 14.435 0 0 0 4.1224 -13.147 14.435 14.435 0 0 0 -13.269 3.6834 14.435 14.435 0 0 0 -4.1221 13.148z" fill="#9acd32"/>
  <path d="m178.5 544.12a37.498 37.498 0 0 1 1.6372 35.734 37.498 37.498 0 0 1 -29.122 20.81 37.498 37.498 0 0 1 -1.6383 -35.735 37.498 37.498 0 0 1 29.123 -20.81z" fill="#9acd32"/>
  <path d="m140.1 542.67a33.727 33.727 0 0 1 -4.5016 31.858 33.727 33.727 0 0 1 -29.205 13.546 33.727 33.727 0 0 1 4.5007 -31.858 33.727 33.727 0 0 1 29.206 -13.545z" fill="#9acd32"/>
  <path d="m104.77 532.05a29.013 29.013 0 0 1 -3.8724 27.405 29.013 29.013 0 0 1 -25.123 11.653 29.013 29.013 0 0 1 3.8716 -27.405 29.013 29.013 0 0 1 25.124 -11.652z" fill="#9acd32"/>
  <path d="m76.526 519.29a26.184 26.184 0 0 1 -10.198 22.802 26.184 26.184 0 0 1 -24.698 3.8365 26.184 26.184 0 0 1 10.198 -22.803 26.184 26.184 0 0 1 24.698 -3.8358z" fill="#9acd32"/>
  <path d="m12.119 480.7a23.927 23.927 0 0 1 22.822 -0.33865 23.927 23.927 0 0 1 12.697 18.984 23.927 23.927 0 0 1 -22.823 0.33937 23.927 23.927 0 0 1 -12.697 -18.985z" fill="#9acd32"/>
  <path d="m170.32 530.64a33.727 33.727 0 0 0 5.4678 -31.706 33.727 33.727 0 0 0 -23.655 -21.837 33.727 33.727 0 0 0 -5.4689 31.706 33.727 33.727 0 0 0 23.656 21.836z" fill="#9acd32"/>
  <path d="m132.3 529.09a29.013 29.013 0 0 0 4.7036 -27.274 29.013 29.013 0 0 0 -20.349 -18.784 29.013 29.013 0 0 0 -4.7045 27.275 29.013 29.013 0 0 0 20.35 18.784z" fill="#9acd32"/>
  <path d="m97.863 518.19a24.482 24.482 0 0 0 3.969 -23.015 24.482 24.482 0 0 0 -17.171 -15.851 24.482 24.482 0 0 0 -3.9698 23.015 24.482 24.482 0 0 0 17.172 15.851z" fill="#9acd32"/>
  <path d="m68.215 505.29a21.632 21.632 0 0 0 3.507 -20.336 21.632 21.632 0 0 0 -15.172 -14.006 21.632 21.632 0 0 0 -3.5077 20.336 21.632 21.632 0 0 0 15.173 14.006z" fill="#9acd32"/>
  <path d="m53.71 509.54a21.314 21.314 0 0 1 -11.742 16.599 21.314 21.314 0 0 1 -20.328 -0.83395 21.314 21.314 0 0 1 11.742 -16.6 21.314 21.314 0 0 1 20.328 0.83458z" fill="#9acd32"/>
  <path d="m133.45 442.64a25.78 25.78 0 0 1 -8.4647 23.09 25.78 25.78 0 0 1 -23.997 5.449 25.78 25.78 0 0 1 8.4642 -23.091 25.78 25.78 0 0 1 23.997 -5.4483z" fill="#9acd32"/>
  <path d="m114.57 431.95a23.187 23.187 0 0 1 -14.803 16.436 23.187 23.187 0 0 1 -21.855 -3.4935 23.187 23.187 0 0 1 14.803 -16.437 23.187 23.187 0 0 1 21.856 3.4942z" fill="#9acd32"/>
  <path d="m98.022 410.86a19.946 19.946 0 0 1 -12.734 14.139 19.946 19.946 0 0 1 -18.801 -3.0052 19.946 19.946 0 0 1 12.734 -14.139 19.946 19.946 0 0 1 18.801 3.0058z" fill="#9acd32"/>
  <path d="m90.232 394.2a18.002 18.002 0 0 1 -14.573 9.0846 18.002 18.002 0 0 1 -15.556 -7.2986 18.002 18.002 0 0 1 14.573 -9.0852 18.002 18.002 0 0 1 15.556 7.2992z" fill="#9acd32"/>
  <path d="m70.286 352.83a16.45 16.45 0 0 1 13.143 8.5728 16.45 16.45 0 0 1 -0.05169 15.701 16.45 16.45 0 0 1 -13.144 -8.5726 16.45 16.45 0 0 1 0.0522 -15.702z" fill="#9acd32"/>
  <path d="m111.78 414.18a18.739 18.739 0 0 0 12.362 -12.913 18.739 18.739 0 0 0 -4.1224 -17.406 18.739 18.739 0 0 0 -12.362 12.913 18.739 18.739 0 0 0 4.123 17.406z" fill="#9acd32"/>
  <path d="m98.177 396.56a16.831 16.831 0 0 0 11.103 -11.598 16.831 16.831 0 0 0 -3.7027 -15.633 16.831 16.831 0 0 0 -11.103 11.598 16.831 16.831 0 0 0 3.7032 15.634z" fill="#9acd32"/>
  <path d="m513.73 296.31a22.838 22.838 0 0 1 12.55 -17.809 22.838 22.838 0 0 1 21.783 0.85497 22.838 22.838 0 0 1 -12.55 17.809 22.838 22.838 0 0 1 -21.783 -0.85566z" fill="#9acd32"/>
  <path d="m531.56 201.8a15.022 15.022 0 0 1 -8.0002 -11.889 15.022 15.022 0 0 1 5.6341 -13.185 15.022 15.022 0 0 1 8.0007 11.889 15.022 15.022 0 0 1 -5.6346 13.185z" fill="#9acd32"/>
  <path d="m500.93 293.3a24.633 24.633 0 0 1 -20.432 -11.608 24.633 24.633 0 0 1 -1.3627 -23.474 24.633 24.633 0 0 1 20.432 11.608 24.633 24.633 0 0 1 1.362 23.474z" fill="#9acd32"/>
  <path d="m513.19 269.05a19.249 19.249 0 0 1 -16.723 -7.5842 19.249 19.249 0 0 1 -2.7254 -18.17 19.249 19.249 0 0 1 16.723 7.5838 19.249 19.249 0 0 1 2.7248 18.17z" fill="#9acd32"/>
  <path d="m521.31 245.01a15.771 15.771 0 0 1 -14.013 -5.4757 15.771 15.771 0 0 1 -3.0226 -14.747 15.771 15.771 0 0 1 14.014 5.4753 15.771 15.771 0 0 1 3.0222 14.748z" fill="#9acd32"/>
  <path d="m523.37 224.74a15.771 15.771 0 0 1 -11.767 -9.3754 15.771 15.771 0 0 1 1.4746 -14.982 15.771 15.771 0 0 1 11.767 9.3752 15.771 15.771 0 0 1 -1.4751 14.982z" fill="#9acd32"/>
  <path d="m522.55 269.04a19.249 19.249 0 0 0 18.335 0.98923 19.249 19.249 0 0 0 10.803 -14.862 19.249 19.249 0 0 0 -18.336 -0.98982 19.249 19.249 0 0 0 -10.803 14.862z" fill="#9acd32"/>
  <path d="m529.88 244.13a15.237 15.237 0 0 0 14.457 1.5087 15.237 15.237 0 0 0 9.13 -11.322 15.237 15.237 0 0 0 -14.457 -1.5092 15.237 15.237 0 0 0 -9.1298 11.322z" fill="#9acd32"/>
  <path d="m532.35 224.32a14.435 14.435 0 0 0 13.712 -1.269 14.435 14.435 0 0 0 6.3916 -12.206 14.435 14.435 0 0 0 -13.712 1.2686 14.435 14.435 0 0 0 -6.3914 12.207z" fill="#9acd32"/>
  <path d="m527.97 350.94a12.032 12.032 0 0 1 4.2843 -10.648 12.032 12.032 0 0 1 11.273 -2.1929 12.032 12.032 0 0 1 -4.2841 10.648 12.032 12.032 0 0 1 -11.273 2.1926z" fill="#9acd32"/>
  <path d="m454.06 296.18a19.665 19.665 0 0 0 -11.433 -14.873 19.665 19.665 0 0 0 -18.71 1.5135 19.665 19.665 0 0 0 11.433 14.873 19.665 19.665 0 0 0 18.71 -1.5142z" fill="#9acd32"/>
  <path d="m469.44 231.42a12.934 12.934 0 0 0 10.678 -6.1828 12.934 12.934 0 0 0 0.6147 -12.331 12.934 12.934 0 0 0 -10.678 6.1826 12.934 12.934 0 0 0 -0.61432 12.331z" fill="#9acd32"/>
  <path d="m503.74 311.84a23.54 23.54 0 0 0 19.558 11.034 23.54 23.54 0 0 0 19.905 -10.425 23.54 23.54 0 0 0 -19.558 -11.035 23.54 23.54 0 0 0 -19.905 10.426z" fill="#9acd32"/>
  <path d="m464.85 313.29a19.458 19.458 0 0 0 18.391 -2.5111 19.458 19.458 0 0 0 7.8936 -16.812 19.458 19.458 0 0 0 -18.392 2.5106 19.458 19.458 0 0 0 -7.8932 16.813z" fill="#9acd32"/>
  <path d="m460.59 260.42a13.58 13.58 0 0 0 12.912 1.0496 13.58 13.58 0 0 0 7.9041 -10.274 13.58 13.58 0 0 0 -12.912 -1.0501 13.58 13.58 0 0 0 -7.9039 10.274z" fill="#9acd32"/>
  <path d="m466.15 246.89a13.58 13.58 0 0 0 12.645 -2.8163 13.58 13.58 0 0 0 4.5118 -12.152 13.58 13.58 0 0 0 -12.645 2.816 13.58 13.58 0 0 0 -4.5115 12.152z" fill="#9acd32"/>
  <path d="m452.59 276.64a16.574 16.574 0 0 1 -15.719 -1.7038 16.574 16.574 0 0 1 -7.118 -14.128 16.574 16.574 0 0 1 15.719 1.7034 16.574 16.574 0 0 1 7.1177 14.129z" fill="#9acd32"/>
  <path d="m453.8 259.44a13.12 13.12 0 0 1 -11.758 -4.2875 13.12 13.12 0 0 1 -2.7943 -12.208 13.12 13.12 0 0 1 11.759 4.2872 13.12 13.12 0 0 1 2.7939 12.208z" fill="#9acd32"/>
  <path d="m459.36 243.18a12.429 12.429 0 0 1 -10.133 -6.156 12.429 12.429 0 0 1 -0.34107 -11.859 12.429 12.429 0 0 1 10.134 6.1558 12.429 12.429 0 0 1 0.34073 11.859z" fill="#9acd32"/>
  <path d="m457.97 323.3a24.761 24.761 0 0 0 -14.396 -18.727 24.761 24.761 0 0 0 -23.558 1.9058 24.761 24.761 0 0 0 14.396 18.728 24.761 24.761 0 0 0 23.558 -1.9065z" fill="#9acd32"/>
  <path d="m482.35 372.27a16.889 16.889 0 0 1 -2.3916 -15.932 16.889 16.889 0 0 1 12.081 -10.674 16.889 16.889 0 0 1 2.3921 15.933 16.889 16.889 0 0 1 -12.081 10.674z" fill="#9acd32"/>
  <path d="m500.74 367.33a13.838 13.838 0 0 1 -1.9595 -13.054 13.838 13.838 0 0 1 9.8982 -8.7457 13.838 13.838 0 0 1 1.96 13.054 13.838 13.838 0 0 1 -9.8986 8.7456z" fill="#9acd32"/>
  <path d="m516.3 357.02a13.838 13.838 0 0 1 -1.9595 -13.054 13.838 13.838 0 0 1 9.8982 -8.7457 13.838 13.838 0 0 1 1.96 13.054 13.838 13.838 0 0 1 -9.8986 8.7455z" fill="#9acd32"/>
  <path d="m501.93 373.73a13.838 13.838 0 0 0 8.0014 10.499 13.838 13.838 0 0 0 13.17 -1.01 13.838 13.838 0 0 0 -8.0012 -10.499 13.838 13.838 0 0 0 -13.17 1.0104z" fill="#9acd32"/>
  <path d="m518.21 364.37a13.838 13.838 0 0 0 8.0014 10.499 13.838 13.838 0 0 0 13.17 -1.01 13.838 13.838 0 0 0 -8.0012 -10.499 13.838 13.838 0 0 0 -13.17 1.0104z" fill="#9acd32"/>
  <path d="m490.87 397.8a12.032 12.032 0 0 1 4.2843 -10.648 12.032 12.032 0 0 1 11.273 -2.1929 12.032 12.032 0 0 1 -4.2841 10.648 12.032 12.032 0 0 1 -11.273 2.1926z" fill="#9acd32"/>
  <path d="m432.76 458.64a20.746 20.746 0 0 1 -10.03 -17.061 20.746 20.746 0 0 1 8.8738 -17.704 20.746 20.746 0 0 1 10.031 17.061 20.746 20.746 0 0 1 -8.8745 17.704z" fill="#9acd32"/>
  <path d="m451.68 444.06a16.388 16.388 0 0 1 -10.327 -11.737 16.388 16.388 0 0 1 4.2411 -15.057 16.388 16.388 0 0 1 10.328 11.737 16.388 16.388 0 0 1 -4.2416 15.057z" fill="#9acd32"/>
  <path d="m466.26 429.69a15.318 15.318 0 0 1 -9.735 -10.898 15.318 15.318 0 0 1 3.8582 -14.103 15.318 15.318 0 0 1 9.7355 10.898 15.318 15.318 0 0 1 -3.8587 14.104z" fill="#9acd32"/>
  <path d="m476.91 414.53a13.185 13.185 0 0 1 -6.8913 -10.521 13.185 13.185 0 0 1 5.0888 -11.51 13.185 13.185 0 0 1 6.8917 10.521 13.185 13.185 0 0 1 -5.0892 11.51z" fill="#9acd32"/>
  <path d="m430.73 475.94a21.817 21.817 0 0 0 14.048 15.356 21.817 21.817 0 0 0 20.537 -3.4467 21.817 21.817 0 0 0 -14.048 -15.356 21.817 21.817 0 0 0 -20.538 3.4474z" fill="#9acd32"/>
  <path d="m448.87 460.45a16.388 16.388 0 0 0 9.8717 12.123 16.388 16.388 0 0 0 15.551 -1.6977 16.388 16.388 0 0 0 -9.8715 -12.123 16.388 16.388 0 0 0 -15.551 1.6982z" fill="#9acd32"/>
  <path d="m462.03 446.98a15.318 15.318 0 0 0 9.1416 11.4 15.318 15.318 0 0 0 14.547 -1.4775 15.318 15.318 0 0 0 -9.1414 -11.401 15.318 15.318 0 0 0 -14.547 1.478z" fill="#9acd32"/>
  <path d="m432.5 508.22a13.185 13.185 0 0 0 12.542 0.94683 13.185 13.185 0 0 0 7.6164 -10.019 13.185 13.185 0 0 0 -12.542 -0.94724 13.185 13.185 0 0 0 -7.6163 10.019z" fill="#9acd32"/>
  <path d="m498.83 423.57a12.042 12.042 0 0 1 -3.576 -10.917 12.042 12.042 0 0 1 7.2237 -8.9408 12.042 12.042 0 0 1 3.5764 10.917 12.042 12.042 0 0 1 -7.2241 8.9408z" fill="#9acd32"/>
  <path d="m412.64 422.29a13.185 13.185 0 0 0 12.472 -1.6226 13.185 13.185 0 0 0 5.4206 -11.358 13.185 13.185 0 0 0 -12.473 1.6222 13.185 13.185 0 0 0 -5.4204 11.358z" fill="#9acd32"/>
  <path d="m401.6 430.07a15.557 15.557 0 0 0 4.4994 -14.142 15.557 15.557 0 0 0 -9.4304 -11.47 15.557 15.557 0 0 0 -4.4999 14.142 15.557 15.557 0 0 0 9.4309 11.47z" fill="#9acd32"/>
  <path d="m391.64 442.67a16.605 16.605 0 0 0 -0.0192 -15.841 16.605 16.605 0 0 0 -13.315 -8.5994 16.605 16.605 0 0 0 0.0187 15.841 16.605 16.605 0 0 0 13.315 8.5992z" fill="#9acd32"/>
  <path d="m384.86 457.34a18.476 18.476 0 0 0 -5.2476 -16.826 18.476 18.476 0 0 0 -16.986 -4.744 18.476 18.476 0 0 0 5.2471 16.826 18.476 18.476 0 0 0 16.986 4.7436z" fill="#9acd32"/>
  <path d="m395.71 460.38a16.388 16.388 0 0 0 15.31 3.1624 16.388 16.388 0 0 0 10.983 -11.139 16.388 16.388 0 0 0 -15.311 -3.163 16.388 16.388 0 0 0 -10.983 11.14z" fill="#9acd32"/>
  <path d="m400.67 445.53a13.185 13.185 0 0 0 12.577 -0.0468 13.185 13.185 0 0 0 6.8013 -10.589 13.185 13.185 0 0 0 -12.578 0.0464 13.185 13.185 0 0 0 -6.8011 10.589z" fill="#9acd32"/>
  <path d="m632.14 548.02a22.015 22.015 0 0 0 9.9879 18.475 22.015 22.015 0 0 0 20.949 1.6593 22.015 22.015 0 0 0 -9.9875 -18.475 22.015 22.015 0 0 0 -20.949 -1.6587z" fill="#9acd32"/>
  <path d="m267.64 406.4a22.838 22.838 0 0 1 14.093 -16.615 22.838 22.838 0 0 1 21.619 2.8002 22.838 22.838 0 0 1 -14.093 16.615 22.838 22.838 0 0 1 -21.62 -2.8009z" fill="#9acd32"/>
  <path d="m393.44 162.13a15.022 15.022 0 0 1 -12.072 -7.7209 15.022 15.022 0 0 1 -0.0812 -14.338 15.022 15.022 0 0 1 12.073 7.7207 15.022 15.022 0 0 1 0.0807 14.339z" fill="#9acd32"/>
  <path d="m292.39 200.27a18.225 18.225 0 0 1 -8.6695 -15.07 18.225 18.225 0 0 1 7.9422 -15.478 18.225 18.225 0 0 1 8.6701 15.07 18.225 18.225 0 0 1 -7.9428 15.478z" fill="#9acd32"/>
  <path d="m405.31 217.46a19.249 19.249 0 0 1 -18.36 -0.29942 19.249 19.249 0 0 1 -9.7341 -15.583 19.249 19.249 0 0 1 18.36 0.29884 19.249 19.249 0 0 1 9.7338 15.583z" fill="#9acd32"/>
  <path d="m401.2 191.05a18.944 18.944 0 0 1 -16.967 6.2209 18.944 18.944 0 0 1 -14.453 -10.867 18.944 18.944 0 0 1 16.967 -6.2216 18.944 18.944 0 0 1 14.453 10.868z" fill="#9acd32"/>
  <path d="m394.9 172.7a15.771 15.771 0 0 1 -14.565 3.7702 15.771 15.771 0 0 1 -11.088 -10.182 15.771 15.771 0 0 1 14.565 -3.7707 15.771 15.771 0 0 1 11.088 10.183z" fill="#9acd32"/>
  <path d="m404.62 185.41a19.249 19.249 0 0 0 17.214 -6.3925 19.249 19.249 0 0 0 3.9932 -17.934 19.249 19.249 0 0 0 -17.214 6.392 19.249 19.249 0 0 0 -3.9927 17.935z" fill="#9acd32"/>
  <path d="m465.38 166.47a15.237 15.237 0 0 0 13.862 -4.3718 15.237 15.237 0 0 0 3.8677 -14.021 15.237 15.237 0 0 0 -13.863 4.3714 15.237 15.237 0 0 0 -3.8674 14.021z" fill="#9acd32"/>
  <path d="m398.24 167.34a14.435 14.435 0 0 0 12.073 -6.6231 14.435 14.435 0 0 0 1.0036 -13.742 14.435 14.435 0 0 0 -12.073 6.6228 14.435 14.435 0 0 0 -1.0032 13.742z" fill="#9acd32"/>
  <path d="m352.13 313.82a21.174 21.174 0 0 0 12.617 -15.773 21.174 21.174 0 0 0 -6.3853 -19.176 21.174 21.174 0 0 0 -12.618 15.773 21.174 21.174 0 0 0 6.386 19.176z" fill="#9acd32"/>
  <path d="m458.69 191.25a14.651 14.651 0 0 0 12.305 6.626 14.651 14.651 0 0 0 12.258 -6.7314 14.651 14.651 0 0 0 -12.305 -6.6265 14.651 14.651 0 0 0 -12.258 6.7319z" fill="#9acd32"/>
  <path d="m462.3 180.11a13.58 13.58 0 0 0 12.712 2.4933 13.58 13.58 0 0 0 9.008 -9.3207 13.58 13.58 0 0 0 -12.712 -2.4937 13.58 13.58 0 0 0 -9.0079 9.3211z" fill="#9acd32"/>
  <path d="m450.95 206.39a15.722 15.722 0 0 0 13.205 7.1104 15.722 15.722 0 0 0 13.154 -7.2234 15.722 15.722 0 0 0 -13.205 -7.1109 15.722 15.722 0 0 0 -13.154 7.2239z" fill="#9acd32"/>
  <path d="m455.16 183.61a13.58 13.58 0 0 1 -12.593 -3.0377 13.58 13.58 0 0 1 -4.2979 -12.229 13.58 13.58 0 0 1 12.594 3.0374 13.58 13.58 0 0 1 4.2976 12.229z" fill="#9acd32"/>
  <path d="m460.75 170.99a13.58 13.58 0 0 1 -11.131 -6.6266 13.58 13.58 0 0 1 -0.48857 -12.953 13.58 13.58 0 0 1 11.132 6.6263 13.58 13.58 0 0 1 0.48818 12.953z" fill="#9acd32"/>
  <path d="m448.13 199.08a15.888 15.888 0 0 1 -14.733 -3.554 15.888 15.888 0 0 1 -5.0283 -14.307 15.888 15.888 0 0 1 14.734 3.5536 15.888 15.888 0 0 1 5.0279 14.308z" fill="#9acd32"/>
  <path d="m413.45 216.62a15.79 15.79 0 0 0 14.848 -2.5357 15.79 15.79 0 0 0 5.9458 -13.85 15.79 15.79 0 0 0 -14.848 2.5352 15.79 15.79 0 0 0 -5.9455 13.85z" fill="#9acd32"/>
  <path d="m333.86 300.53a19.268 19.268 0 0 0 11.482 -14.353 19.268 19.268 0 0 0 -5.8105 -17.45 19.268 19.268 0 0 0 -11.482 14.353 19.268 19.268 0 0 0 5.8111 17.45z" fill="#9acd32"/>
  <path d="m316.74 278.1a16.113 16.737 19.166 0 0 13.163 -8.6248 16.113 16.737 19.166 0 0 0.3869 -15.913 16.113 16.737 19.166 0 0 -13.163 8.6245 16.113 16.737 19.166 0 0 -0.38643 15.913z" fill="#9acd32"/>
  <path d="m304.71 255.54a16.113 16.737 30.456 0 0 14.597 -5.8811 16.113 16.737 30.456 0 0 3.4946 -15.529 16.113 16.737 30.456 0 0 -14.597 5.8808 16.113 16.737 30.456 0 0 -3.4942 15.53z" fill="#9acd32"/>
  <path d="m298.51 231.84a16.113 16.737 35.038 0 0 15.02 -4.6963 16.113 16.737 35.038 0 0 4.724 -15.201 16.113 16.737 35.038 0 0 -15.02 4.6959 16.113 16.737 35.038 0 0 -4.7236 15.201z" fill="#9acd32"/>
  <path d="m355.28 200.09a13.943 13.943 0 0 1 -6.6325 -11.529 13.943 13.943 0 0 1 6.0761 -11.841 13.943 13.943 0 0 1 6.6329 11.529 13.943 13.943 0 0 1 -6.0765 11.841z" fill="#9acd32"/>
  <path d="m380.26 261.88a18.25 18.25 0 0 0 16.846 -4.3956 18.25 18.25 0 0 0 5.4702 -16.539 18.25 18.25 0 0 0 -16.846 4.3951 18.25 18.25 0 0 0 -5.4698 16.539z" fill="#9acd32"/>
  <path d="m370.48 248.26a17.472 17.472 0 0 0 16.127 -4.2081 17.472 17.472 0 0 0 5.2369 -15.834 17.472 17.472 0 0 0 -16.127 4.2077 17.472 17.472 0 0 0 -5.2365 15.834z" fill="#9acd32"/>
  <path d="m362.61 232.84a13.58 13.58 0 0 0 12.535 -3.2708 13.58 13.58 0 0 0 4.0704 -12.307 13.58 13.58 0 0 0 -12.535 3.2704 13.58 13.58 0 0 0 -4.0701 12.307z" fill="#9acd32"/>
  <path d="m357.73 218.68a13.58 13.58 0 0 0 12.535 -3.2708 13.58 13.58 0 0 0 4.0704 -12.307 13.58 13.58 0 0 0 -12.535 3.2704 13.58 13.58 0 0 0 -4.0701 12.307z" fill="#9acd32"/>
  <path d="m372.41 269.76a16.574 16.574 0 0 1 -14.836 5.4659 16.574 16.574 0 0 1 -12.66 -9.4876 16.574 16.574 0 0 1 14.836 -5.4664 16.574 16.574 0 0 1 12.66 9.4881z" fill="#9acd32"/>
  <path d="m355.82 231.55a15.397 15.516 0 0 1 -13.782 5.117 15.397 15.516 0 0 1 -11.76 -8.882 15.397 15.516 0 0 1 13.782 -5.1175 15.397 15.516 0 0 1 11.76 8.8825z" fill="#9acd32"/>
  <path d="m362.16 251.7a15.985 16.574 0 0 1 -14.309 5.4659 15.985 16.574 0 0 1 -12.21 -9.4876 15.985 16.574 0 0 1 14.309 -5.4664 15.985 16.574 0 0 1 12.21 9.4881z" fill="#9acd32"/>
  <path d="m352.46 217.23a15.397 15.516 19.859 0 1 -14.701 0.13087 15.397 15.516 19.859 0 1 -8.0439 -12.349 15.397 15.516 19.859 0 1 14.701 -0.13133 15.397 15.516 19.859 0 1 8.0436 12.349z" fill="#9acd32"/>
  <path d="m505.13 479.26a17.524 17.577 0 0 0 16.082 -4.5753 17.524 17.577 0 0 0 4.916 -16.037 17.524 17.577 0 0 0 -16.083 4.5748 17.524 17.577 0 0 0 -4.9156 16.038z" fill="#9acd32"/>
  <path d="m497.83 442.07a13.58 13.58 0 0 0 12.282 -4.1209 13.58 13.58 0 0 0 3.2186 -12.556 13.58 13.58 0 0 0 -12.282 4.1206 13.58 13.58 0 0 0 -3.2183 12.557z" fill="#9acd32"/>
  <path d="m500.19 459.31a14.369 15.179 0 0 0 13.187 -3.951 14.369 15.179 0 0 0 4.0308 -13.849 14.369 15.179 0 0 0 -13.187 3.9506 14.369 15.179 0 0 0 -4.0305 13.849z" fill="#9acd32"/>
  <path d="m423.87 382.38a22.838 22.838 0 0 0 10.742 18.954 22.838 22.838 0 0 0 21.762 1.2868 22.838 22.838 0 0 0 -10.742 -18.955 22.838 22.838 0 0 0 -21.762 -1.2862z" fill="#9acd32"/>
  <path d="m490.87 442.56a13.58 13.58 0 0 1 -12.282 -4.1209 13.58 13.58 0 0 1 -3.2186 -12.556 13.58 13.58 0 0 1 12.282 4.1206 13.58 13.58 0 0 1 3.2183 12.557z" fill="#9acd32"/>
  <path d="m495.75 490.99a17.577 17.524 59.22 0 1 -16.158 4.2993 17.577 17.524 59.22 0 1 -12.43 -11.262 17.577 17.524 59.22 0 1 16.159 -4.2999 17.577 17.524 59.22 0 1 12.43 11.263z" fill="#9acd32"/>
  <path d="m493.31 469.74a12.147 11.346 1.127 0 1 -11.192 2.7774 12.147 11.346 1.127 0 1 -8.6095 -7.2756 12.147 11.346 1.127 0 1 11.192 -2.7778 12.147 11.346 1.127 0 1 8.6094 7.276z" fill="#9acd32"/>
  <path d="m417.6 535.98a13.58 13.58 0 0 0 12.563 3.1606 13.58 13.58 0 0 0 9.4873 -8.8324 13.58 13.58 0 0 0 -12.563 -3.161 13.58 13.58 0 0 0 -9.4872 8.8329z" fill="#9acd32"/>
  <path d="m417.01 558.77a14.369 15.179 7.499 0 0 13.59 -2.1962 14.369 15.179 7.499 0 0 5.8038 -13.204 14.369 15.179 7.499 0 0 -13.59 2.1957 14.369 15.179 7.499 0 0 -5.8035 13.205z" fill="#9acd32"/>
  <path d="m424.43 521.34a13.58 13.58 0 0 0 12.563 3.1606 13.58 13.58 0 0 0 9.4873 -8.8324 13.58 13.58 0 0 0 -12.563 -3.161 13.58 13.58 0 0 0 -9.4872 8.8329z" fill="#9acd32"/>
  <path d="m558.98 469.03a23.711 24.983 0 0 0 4.0449 23.448 23.711 24.983 0 0 0 20.891 9.1735 23.711 24.983 0 0 0 -4.0443 -23.448 23.711 24.983 0 0 0 -20.892 -9.173z" fill="#9acd32"/>
  <path d="m273.63 291.2a15.744 15.744 0 0 1 -5.8501 -13.833 15.744 15.744 0 0 1 8.4363 -12.437 15.744 15.744 0 0 1 5.8506 13.833 15.744 15.744 0 0 1 -8.4368 12.437z" fill="#9acd32"/>
  <path d="m270.43 247.23a18.216 18.216 0 0 1 17.311 1.5126 18.216 18.216 0 0 1 8.145 15.362 18.216 18.216 0 0 1 -17.312 -1.512 18.216 18.216 0 0 1 -8.1447 -15.363z" fill="#9acd32"/>
  <path d="m268.74 226.34a16.737 16.113 43.651 0 1 15.649 1.659 16.737 16.113 43.651 0 1 7.6138 13.979 16.737 16.113 43.651 0 1 -15.649 -1.6585 16.737 16.113 43.651 0 1 -7.6135 -13.979z" fill="#9acd32"/>
  <path d="m264.92 207.26a16.737 16.113 35.386 0 1 15.725 -0.60758 16.737 16.113 35.386 0 1 9.5439 12.739 16.737 16.113 35.386 0 1 -15.725 0.60808 16.737 16.113 35.386 0 1 -9.5437 -12.74z" fill="#9acd32"/>
  <path d="m205.79 236.9a16.737 16.113 51.453 0 1 15.279 3.7682 16.737 16.113 51.453 0 1 5.6455 14.883 16.737 16.113 51.453 0 1 -15.279 -3.7678 16.737 16.113 51.453 0 1 -5.6451 -14.883z" fill="#9acd32"/>
  <path d="m131.04 262.39a13.973 14.515 8.5381 0 1 6.629 11.929 13.973 14.515 8.5381 0 1 -6.1188 12.374 13.973 14.515 8.5381 0 1 -6.6295 -11.929 13.973 14.515 8.5381 0 1 6.1192 -12.374z" fill="#9acd32"/>
  <path d="m195.94 275.67a16.113 16.737 8.5381 0 1 7.644 13.756 16.113 16.737 8.5381 0 1 -7.0556 14.269 16.113 16.737 8.5381 0 1 -7.6446 -13.756 16.113 16.737 8.5381 0 1 7.0561 -14.269z" fill="#9acd32"/>
  <path d="m216.44 382.1a16.113 16.737 8.5381 0 1 7.644 13.756 16.113 16.737 8.5381 0 1 -7.0556 14.269 16.113 16.737 8.5381 0 1 -7.6446 -13.756 16.113 16.737 8.5381 0 1 7.0561 -14.269z" fill="#9acd32"/>
  <path d="m255.96 300.84a16.737 16.113 88.371 0 1 9.952 12.19 16.737 16.113 88.371 0 1 -4.4262 15.29 16.737 16.113 88.371 0 1 -9.9526 -12.19 16.737 16.113 88.371 0 1 4.4267 -15.29z" fill="#9acd32"/>
  <path d="m211.25 485.13a21.704 21.77 33.234 0 0 19.767 6.177 21.704 21.77 33.234 0 0 15.979 -13.277 21.704 21.77 33.234 0 0 -19.767 -6.1778 21.704 21.77 33.234 0 0 -15.979 13.278z" fill="#9acd32"/>
  <path d="m222.62 442.99a13.58 13.58 0 0 0 12.531 3.2842 13.58 13.58 0 0 0 9.5738 -8.7385 13.58 13.58 0 0 0 -12.531 -3.2846 13.58 13.58 0 0 0 -9.5737 8.739z" fill="#9acd32"/>
  <path d="m220.3 463.47a16.372 17.295 33.234 0 0 15.035 4.4694 16.372 17.295 33.234 0 0 12.49 -10.681 16.372 17.295 33.234 0 0 -15.035 -4.47 16.372 17.295 33.234 0 0 -12.49 10.682z" fill="#9acd32"/>
  <path d="m222.49 429.1a13.58 13.58 0 0 0 12.939 -0.63502 13.58 13.58 0 0 0 6.5038 -11.212 13.58 13.58 0 0 0 -12.939 0.63465 13.58 13.58 0 0 0 -6.5036 11.213z" fill="#9acd32"/>
  <path d="m410.35 529.97a13.58 13.58 0 0 1 -12.896 -1.2316 13.58 13.58 0 0 1 -5.9793 -11.501 13.58 13.58 0 0 1 12.896 1.2313 13.58 13.58 0 0 1 5.9791 11.501z" fill="#9acd32"/>
  <path d="m404.63 548.74a17.428 16.497 81.149 0 1 -15.658 -2.1528 17.428 16.497 81.149 0 1 -7.0195 -14.999 17.428 16.497 81.149 0 1 15.659 2.1523 17.428 16.497 81.149 0 1 7.0191 15z" fill="#9acd32"/>
  <path d="m415.23 519.87a13.58 13.58 0 0 1 -10.985 -6.8665 13.58 13.58 0 0 1 -0.2074 -12.961 13.58 13.58 0 0 1 10.985 6.8663 13.58 13.58 0 0 1 0.20704 12.961z" fill="#9acd32"/>
  <path d="m406.97 566.88a21.176 20.046 65.139 0 1 -19.009 2.7331 21.176 20.046 65.139 0 1 -13.225 -15.166 21.176 20.046 65.139 0 1 19.01 -2.7338 21.176 20.046 65.139 0 1 13.225 15.167z" fill="#9acd32"/>
  <path d="m421.33 510.02a13.58 13.58 0 0 1 -4.6595 -12.087 13.58 13.58 0 0 1 7.6178 -10.488 13.58 13.58 0 0 1 4.6599 12.087 13.58 13.58 0 0 1 -7.6182 10.488z" fill="#9acd32"/>
  <path d="m381.94 474.54a19.533 19.533 0 0 0 -11.486 -14.672 19.533 19.533 0 0 0 -18.57 1.6671 19.533 19.533 0 0 0 11.486 14.673 19.533 19.533 0 0 0 18.57 -1.6677z" fill="#9acd32"/>
  <path d="m498.99 504.78a21.692 21.626 38.391 0 1 -16.751 12.05 21.692 21.626 38.391 0 1 -19.28 -7.5358 21.692 21.626 38.391 0 1 16.751 -12.05 21.692 21.626 38.391 0 1 19.28 7.5365z" fill="#9acd32"/>
  <path d="m143.09 355.33a20.911 20.911 0 0 0 19.948 -0.12926 20.911 20.911 0 0 0 10.741 -16.824 20.911 20.911 0 0 0 -19.948 0.12861 20.911 20.911 0 0 0 -10.74 16.825z" fill="#9acd32"/>
  <path d="m138.92 334.24a17.472 17.472 0 0 0 16.667 -0.108 17.472 17.472 0 0 0 8.974 -14.057 17.472 17.472 0 0 0 -16.667 0.10746 17.472 17.472 0 0 0 -8.9738 14.057z" fill="#9acd32"/>
  <path d="m135.58 316.49a16.241 16.241 0 0 0 15.493 -0.10034 16.241 16.241 0 0 0 8.342 -13.067 16.241 16.241 0 0 0 -15.493 0.0999 16.241 16.241 0 0 0 -8.3417 13.067z" fill="#9acd32"/>
  <path d="m134.82 300.48a13.58 13.58 0 0 0 12.954 -0.084 13.58 13.58 0 0 0 6.975 -10.926 13.58 13.58 0 0 0 -12.954 0.0835 13.58 13.58 0 0 0 -6.9748 10.926z" fill="#9acd32"/>
  <path d="m191.53 316.89a13.58 13.58 0 0 1 -12.593 -3.0377 13.58 13.58 0 0 1 -4.2979 -12.229 13.58 13.58 0 0 1 12.594 3.0374 13.58 13.58 0 0 1 4.2976 12.229z" fill="#9acd32"/>
  <path d="m213.17 295.42a13.58 13.58 0 0 1 -4.0344 -12.31 13.58 13.58 0 0 1 8.1448 -10.084 13.58 13.58 0 0 1 4.0349 12.31 13.58 13.58 0 0 1 -8.1453 10.084z" fill="#9acd32"/>
  <path d="m185.97 333.82a15.888 15.888 0 0 1 -14.733 -3.554 15.888 15.888 0 0 1 -5.0283 -14.307 15.888 15.888 0 0 1 14.734 3.5536 15.888 15.888 0 0 1 5.0279 14.308z" fill="#9acd32"/>
  <path d="m231.98 362.4a18.25 18.25 0 0 0 17.085 -3.3445 18.25 18.25 0 0 0 6.4834 -16.169 18.25 18.25 0 0 0 -17.086 3.344 18.25 18.25 0 0 0 -6.483 16.169z" fill="#9acd32"/>
  <path d="m224.53 346.24a17.472 17.472 0 0 0 16.357 -3.2018 17.472 17.472 0 0 0 6.2069 -15.479 17.472 17.472 0 0 0 -16.357 3.2014 17.472 17.472 0 0 0 -6.2066 15.48z" fill="#9acd32"/>
  <path d="m218.93 328.3a16.103 16.103 0 0 0 15.075 -2.951 16.103 16.103 0 0 0 5.7207 -14.267 16.103 16.103 0 0 0 -15.076 2.9506 16.103 16.103 0 0 0 -5.7204 14.267z" fill="#9acd32"/>
  <path d="m215.58 310.57a13.58 13.58 0 0 0 12.713 -2.4886 13.58 13.58 0 0 0 4.8243 -12.031 13.58 13.58 0 0 0 -12.713 2.4882 13.58 13.58 0 0 0 -4.824 12.031z" fill="#9acd32"/>
  <path d="m272.67 382.59a17.524 17.577 20.141 0 0 16.674 1.2421 17.524 17.577 20.141 0 0 10.137 -13.364 17.524 17.577 20.141 0 0 -16.675 -1.2426 17.524 17.577 20.141 0 0 -10.137 13.364z" fill="#9acd32"/>
  <path d="m268.78 349.23a13.58 13.58 0 0 0 12.949 0.35992 13.58 13.58 0 0 0 7.3452 -10.68 13.58 13.58 0 0 0 -12.95 -0.3603 13.58 13.58 0 0 0 -7.345 10.681z" fill="#9acd32"/>
  <path d="m271.36 364.88a14.369 15.179 20.141 0 0 13.741 0.83117 14.369 15.179 20.141 0 0 8.5528 -11.614 14.369 15.179 20.141 0 0 -13.741 -0.83168 14.369 15.179 20.141 0 0 -8.5526 11.614z" fill="#9acd32"/>
  <path d="m265.99 336.71a13.58 13.58 0 0 0 12.459 -3.5498 13.58 13.58 0 0 0 3.7946 -12.394 13.58 13.58 0 0 0 -12.459 3.5494 13.58 13.58 0 0 0 -3.7943 12.395z" fill="#9acd32"/>
  <path d="m133.33 362.33a20.911 20.911 0 0 1 -19.245 5.2514 20.911 20.911 0 0 1 -14.877 -13.307 20.911 20.911 0 0 1 19.245 -5.2521 20.911 20.911 0 0 1 14.877 13.308z" fill="#9acd32"/>
  <path d="m130.19 339.44a17.472 17.472 0 0 1 -16.079 4.3876 17.472 17.472 0 0 1 -12.43 -11.118 17.472 17.472 0 0 1 16.079 -4.3882 17.472 17.472 0 0 1 12.43 11.119z" fill="#9acd32"/>
  <path d="m129.61 316.56a16.241 16.241 0 0 1 -14.947 4.0786 16.241 16.241 0 0 1 -11.555 -10.335 16.241 16.241 0 0 1 14.947 -4.0791 16.241 16.241 0 0 1 11.555 10.336z" fill="#9acd32"/>
  <path d="m130.42 299.48a13.58 13.58 0 0 1 -12.498 3.4102 13.58 13.58 0 0 1 -9.6613 -8.6416 13.58 13.58 0 0 1 12.498 -3.4107 13.58 13.58 0 0 1 9.6613 8.6421z" fill="#9acd32"/>
  <path d="m136.18 428.91a19.946 19.946 0 0 0 8.3282 -17.108 19.946 19.946 0 0 0 -9.8394 -16.3 19.946 19.946 0 0 0 -8.3289 17.108 19.946 19.946 0 0 0 9.84 16.3z" fill="#9acd32"/>
  <path d="m211.98 536.03a40.659 40.452 0 0 1 12.556 36.512 40.659 40.452 0 0 1 -23.993 30.35 40.659 40.452 0 0 1 -12.557 -36.512 40.659 40.452 0 0 1 23.994 -30.35z" fill="#9acd32"/>
  <path d="m209.85 456.12a17.577 17.524 72.204 0 1 -16.711 0.55877 17.577 17.524 72.204 0 1 -9.582 -13.767 17.577 17.524 72.204 0 1 16.712 -0.55934 17.577 17.524 72.204 0 1 9.5818 13.768z" fill="#9acd32"/>
  <path d="m216.14 437.81a15.583 15.583 0 0 1 -14.864 -0.19535 15.583 15.583 0 0 1 -7.9203 -12.591 15.583 15.583 0 0 1 14.864 0.19491 15.583 15.583 0 0 1 7.9201 12.591z" fill="#9acd32"/>
  <path d="m313.83 195.43a15.179 14.369 2.9041 0 1 -4.614 12.97 15.179 14.369 2.9041 0 1 -14.035 3.324 15.179 14.369 2.9041 0 1 4.6136 -12.97 15.179 14.369 2.9041 0 1 14.036 -3.3237z" fill="#9acd32"/>
  <path d="m214.6 423.15a13.58 13.58 0 0 1 -12.303 -4.0566 13.58 13.58 0 0 1 -3.2843 -12.539 13.58 13.58 0 0 1 12.303 4.0562 13.58 13.58 0 0 1 3.284 12.54z" fill="#9acd32"/>
  <path d="m186.62 370.7a21.174 21.174 0 0 1 18.617 -7.8364 21.174 21.174 0 0 1 16.707 11.374 21.174 21.174 0 0 1 -18.617 7.8371 21.174 21.174 0 0 1 -16.707 -11.375z" fill="#9acd32"/>
  <path d="m188.14 346.18a18.216 18.216 0 0 1 17.328 -1.3123 18.216 18.216 0 0 1 10.526 13.839 18.216 18.216 0 0 1 -17.328 1.3129 18.216 18.216 0 0 1 -10.526 -13.84z" fill="#9acd32"/>
  <path d="m194.8 323.27a14.173 13.644 58.197 0 1 12.474 4.688 14.173 13.644 58.197 0 1 3.2675 13.077 14.173 13.644 58.197 0 1 -12.474 -4.6876 14.173 13.644 58.197 0 1 -3.2672 -13.077z" fill="#9acd32"/>
  <path d="m195.55 320.11a11.335 11.335 0 0 0 10.612 -2.0772 11.335 11.335 0 0 0 4.0268 -10.042 11.335 11.335 0 0 0 -10.612 2.0769 11.335 11.335 0 0 0 -4.0266 10.043z" fill="#9acd32"/>
  <path d="m184.3 402.82a19.249 19.249 0 0 0 -12.418 13.526 19.249 19.249 0 0 0 4.6061 17.787 19.249 19.249 0 0 0 12.419 -13.526 19.249 19.249 0 0 0 -4.6068 -17.787z" fill="#9acd32"/>
  <path d="m167.84 377.65a11.605 11.605 0 0 0 10.8 2.4336 11.605 11.605 0 0 0 7.9177 -7.7468 11.605 11.605 0 0 0 -10.8 -2.434 11.605 11.605 0 0 0 -7.9176 7.7472z" fill="#9acd32"/>
  <path d="m155.49 390.01a18.713 18.713 0 0 0 15.246 9.286 18.713 18.713 0 0 0 16.091 -7.754 18.713 18.713 0 0 0 -15.246 -9.2867 18.713 18.713 0 0 0 -16.091 7.7546z" fill="#9acd32"/>
  <path d="m150.13 444.46a25.78 25.78 0 0 1 3.4932 24.343 25.78 25.78 0 0 1 -18.546 16.174 25.78 25.78 0 0 1 -3.494 -24.344 25.78 25.78 0 0 1 18.547 -16.174z" fill="#9acd32"/>
  <path d="m254.49 391.22a18.433 18.433 0 0 1 -11.715 -13.114 18.433 18.433 0 0 1 4.6428 -16.971 18.433 18.433 0 0 1 11.715 13.114 18.433 18.433 0 0 1 -4.6434 16.972z" fill="#9acd32"/>
  <path d="m491.83 558.13a37.498 37.498 0 0 0 -19.17 30.201 37.498 37.498 0 0 0 14.94 32.527 37.498 37.498 0 0 0 19.171 -30.201 37.498 37.498 0 0 0 -14.941 -32.527z" fill="#9acd32"/>
  <path d="m640.03 539.26a18.028 18.028 0 0 1 -8.2899 -15.068 18.028 18.028 0 0 1 8.1467 -15.158 18.028 18.028 0 0 1 8.2905 15.068 18.028 18.028 0 0 1 -8.1473 15.158z" fill="#9acd32"/>
  <path d="m322.02 312.64a24.588 20.026 0 0 1 2.9019 18.957 24.588 20.026 0 0 1 -17.971 12.295 24.588 20.026 0 0 1 -2.9026 -18.957 24.588 20.026 0 0 1 17.971 -12.295z" fill="#9acd32"/>
  <path d="m304.15 311.05a15.691 15.691 0 0 1 -3.8157 14.474 15.691 15.691 0 0 1 -14.232 4.6675 15.691 15.691 0 0 1 3.8153 -14.474 15.691 15.691 0 0 1 14.232 -4.6671z" fill="#9acd32"/>
  <path d="m257.47 286.37a13.498 13.498 0 0 1 -3.2823 12.451 13.498 13.498 0 0 1 -12.242 4.0151 13.498 13.498 0 0 1 3.282 -12.451 13.498 13.498 0 0 1 12.243 -4.0148z" fill="#9acd32"/>
  <path d="m245.61 276.43a13.926 13.926 0 0 1 -6.8069 11.409 13.926 13.926 0 0 1 -13.284 0.48809 13.926 13.926 0 0 1 6.8066 -11.409 13.926 13.926 0 0 1 13.284 -0.48766z" fill="#9acd32"/>
  <path d="m235.45 266.63a12.182 12.182 0 0 1 -10.356 5.2723 12.182 12.182 0 0 1 -10.061 -5.8304 12.182 12.182 0 0 1 10.356 -5.2728 12.182 12.182 0 0 1 10.061 5.8308z" fill="#9acd32"/>
  <path d="m254.98 278.68a17.472 17.472 0 0 0 13.981 -9.0737 17.472 17.472 0 0 0 -0.017 -16.677 17.472 17.472 0 0 0 -13.981 9.0734 17.472 17.472 0 0 0 0.0174 16.677z" fill="#9acd32"/>
  <path d="m242.65 267.53a13.58 13.58 0 0 0 10.866 -7.0525 13.58 13.58 0 0 0 -0.0132 -12.962 13.58 13.58 0 0 0 -10.867 7.0522 13.58 13.58 0 0 0 0.0136 12.962z" fill="#9acd32"/>
  <path d="m232.05 256.64a13.58 13.58 0 0 0 10.866 -7.0525 13.58 13.58 0 0 0 -0.0132 -12.962 13.58 13.58 0 0 0 -10.867 7.0522 13.58 13.58 0 0 0 0.0136 12.962z" fill="#9acd32"/>
  <path d="m416.37 238.83a13.838 13.838 0 0 0 8.0014 10.499 13.838 13.838 0 0 0 13.17 -1.01 13.838 13.838 0 0 0 -8.0012 -10.499 13.838 13.838 0 0 0 -13.17 1.0104z" fill="#9acd32"/>
  <path d="m464.27 296.13a15.626 14.867 0 0 0 11.353 -9.1908 15.626 14.867 0 0 0 -1.9391 -14.07 15.626 14.867 0 0 0 -11.353 9.1906 15.626 14.867 0 0 0 1.9396 14.07z" fill="#9acd32"/>
  <path d="m409.03 197.83a12.137 12.137 0 0 0 11.529 -1.067 12.137 12.137 0 0 0 5.3742 -10.263 12.137 12.137 0 0 0 -11.529 1.0666 12.137 12.137 0 0 0 -5.374 10.264z" fill="#9acd32"/>
  <path d="m289.31 309.41a12.182 12.182 0 0 1 -10.356 5.2723 12.182 12.182 0 0 1 -10.061 -5.8304 12.182 12.182 0 0 1 10.356 -5.2728 12.182 12.182 0 0 1 10.061 5.8308z" fill="#9acd32"/>
  <path d="m114.22 372.49a15.318 15.318 0 0 0 9.1416 11.4 15.318 15.318 0 0 0 14.547 -1.4775 15.318 15.318 0 0 0 -9.1414 -11.401 15.318 15.318 0 0 0 -14.547 1.478z" fill="#9acd32"/>
  <path d="m281.22 285.11a19.362 19.362 0 0 0 11.555 14.41 19.362 19.362 0 0 0 18.387 -1.8676 19.362 19.362 0 0 0 -11.555 -14.41 19.362 19.362 0 0 0 -18.387 1.8682z" fill="#9acd32"/>
 </g>
</svg>
