<?xml version="1.0" encoding="UTF-8"?>
<svg viewBox="0 0 480 750" xmlns="http://www.w3.org/2000/svg">
 <g transform="translate(773.7 -372.77)">
  <path d="m-700 847.38 50 187c0 33.137 53.726 60 120 60s120-26.863 120-60l50-187h-340z" fill="#a15623" stroke="#000" stroke-width="4"/>
  <path d="m-710 742.38 0.15625 100c13.464 43.048 89.969 76 179.84 76s166.38-32.952 179.84-76l0.15625-100h-360z" fill="#a15623" stroke="#000" stroke-width="6"/>
  <path transform="matrix(1.5 0 0 1.5 370 -806.18)" d="m-480 1032.4c0 33.137-53.726 60-120 60s-120-26.863-120-60 53.726-60 120-60 120 26.863 120 60z" fill="#a15623" stroke="#000" stroke-width="4"/>
  <path d="m-530 737.38c-68.665 0-128.34 19.229-158.69 47.5 30.356 28.263 90.034 47.5 158.69 47.5s128.33-19.237 158.69-47.5c-30.351-28.271-90.022-47.5-158.69-47.5z" fill="#a15623" stroke="#000" stroke-width="6"/>
  <path d="m-525 742.36c-10.391 0-25.004 2.7755-35 5-13.781 3.0669-27.695 2.1542-40 5-12.844 2.9704-24.605 0.19887-35 5-7.3341 3.3876-13.142 11.515-20 15-11.989 6.0916-21.848 7.4062-30 15 31.181 24.961 87.644 48.048 155 45 74.96-3.3918 128.94-21.777 155-45-7.8428-7.3054-17.809-14.671-30-20-12.958-5.6649-24.664-5.6778-40-10-4.1095-1.1582-15.926-9.3994-20-10-14.019-2.067-20.222 0.96269-35 0-8.1697-0.53218-15.385-5-25-5z" fill="#140a04"/>
  <g transform="translate(0,184)">
   <path d="m-540 612.36c20-160 100-200 100-200" fill="none" stroke="#005600" stroke-width="4"/>
   <path d="m-540 592.36c0.82397-178.05-39.176-238.05-39.176-238.05" fill="none" stroke="#005600" stroke-width="4"/>
   <path d="m-540 612.36c10-210-20-300-20-300" fill="none" stroke="#005600" stroke-width="4"/>
   <g transform="matrix(.90334 -.42893 .42893 .90334 -438.03 -256.72)">
    <path d="m-360.5 492.38c0 50.117 17.583 77.786 35.188 92.875s35.25 17.594 35.25 17.594l0.125-0.96875s-17.354-2.4956-34.75-17.406-34.812-42.21-34.812-92.094h-1z" fill="#007200"/>
    <path d="m-359.94 491.88-0.125 0.96875s17.354 2.4956 34.75 17.406 34.812 42.242 34.812 92.125h1c0-50.117-17.583-77.817-35.188-92.906s-35.25-17.594-35.25-17.594z" fill="#007200"/>
    <path d="m-297.8 599.28c-11.959-4.1539-22.391-10.742-31.37-19.811-6.9276-6.9975-11.603-13.654-16.678-23.745-7.8796-15.668-11.713-31.586-13.069-54.265-0.41146-6.8823-0.33161-8.1726 0.48954-7.9099l5.8932 1.8708c11.292 3.5792 21.862 10.196 31.276 19.578 12.856 12.812 21.403 28.753 26.161 48.796 2.9503 12.427 5.265 37.673 3.4373 37.489-0.28946-0.029-3.0525-0.93026-6.14-2.0027z" fill="#14a204" stroke="#007200" stroke-width="2.8069"/>
   </g>
   <g transform="translate(-129.94 -30.482)">
    <path d="m-360.5 492.38c0 50.117 17.583 77.786 35.188 92.875s35.25 17.594 35.25 17.594l0.125-0.96875s-17.354-2.4956-34.75-17.406-34.812-42.21-34.812-92.094h-1z" fill="#007200"/>
    <path d="m-359.94 491.88-0.125 0.96875s17.354 2.4956 34.75 17.406 34.812 42.242 34.812 92.125h1c0-50.117-17.583-77.817-35.188-92.906s-35.25-17.594-35.25-17.594z" fill="#007200"/>
    <path d="m-297.8 599.28c-11.959-4.1539-22.391-10.742-31.37-19.811-6.9276-6.9975-11.603-13.654-16.678-23.745-7.8796-15.668-11.713-31.586-13.069-54.265-0.41146-6.8823-0.33161-8.1726 0.48954-7.9099l5.8932 1.8708c11.292 3.5792 21.862 10.196 31.276 19.578 12.856 12.812 21.403 28.753 26.161 48.796 2.9503 12.427 5.265 37.673 3.4373 37.489-0.28946-0.029-3.0525-0.93026-6.14-2.0027z" fill="#14a204" stroke="#007200" stroke-width="2.8069"/>
   </g>
   <g transform="matrix(-1 0 0 -1 -940.06 845.21)">
    <path d="m-360.5 492.38c0 50.117 17.583 77.786 35.188 92.875s35.25 17.594 35.25 17.594l0.125-0.96875s-17.354-2.4956-34.75-17.406-34.812-42.21-34.812-92.094h-1z" fill="#007200"/>
    <path d="m-359.94 491.88-0.125 0.96875s17.354 2.4956 34.75 17.406 34.812 42.242 34.812 92.125h1c0-50.117-17.583-77.817-35.188-92.906s-35.25-17.594-35.25-17.594z" fill="#007200"/>
    <path d="m-297.8 599.28c-11.959-4.1539-22.391-10.742-31.37-19.811-6.9276-6.9975-11.603-13.654-16.678-23.745-7.8796-15.668-11.713-31.586-13.069-54.265-0.41146-6.8823-0.33161-8.1726 0.48954-7.9099l5.8932 1.8708c11.292 3.5792 21.862 10.196 31.276 19.578 12.856 12.812 21.403 28.753 26.161 48.796 2.9503 12.427 5.265 37.673 3.4373 37.489-0.28946-0.029-3.0525-0.93026-6.14-2.0027z" fill="#14a204" stroke="#007200" stroke-width="2.8069"/>
   </g>
   <g transform="matrix(-1 0 0 -1 -879.5 1014.7)">
    <path d="m-360.5 492.38c0 50.117 17.583 77.786 35.188 92.875s35.25 17.594 35.25 17.594l0.125-0.96875s-17.354-2.4956-34.75-17.406-34.812-42.21-34.812-92.094h-1z" fill="#007200"/>
    <path d="m-359.94 491.88-0.125 0.96875s17.354 2.4956 34.75 17.406 34.812 42.242 34.812 92.125h1c0-50.117-17.583-77.817-35.188-92.906s-35.25-17.594-35.25-17.594z" fill="#007200"/>
    <path d="m-297.8 599.28c-11.959-4.1539-22.391-10.742-31.37-19.811-6.9276-6.9975-11.603-13.654-16.678-23.745-7.8796-15.668-11.713-31.586-13.069-54.265-0.41146-6.8823-0.33161-8.1726 0.48954-7.9099l5.8932 1.8708c11.292 3.5792 21.862 10.196 31.276 19.578 12.856 12.812 21.403 28.753 26.161 48.796 2.9503 12.427 5.265 37.673 3.4373 37.489-0.28946-0.029-3.0525-0.93026-6.14-2.0027z" fill="#14a204" stroke="#007200" stroke-width="2.8069"/>
   </g>
   <g transform="matrix(1 0 0 -1 -80.5 904.74)">
    <path d="m-360.5 492.38c0 50.117 17.583 77.786 35.188 92.875s35.25 17.594 35.25 17.594l0.125-0.96875s-17.354-2.4956-34.75-17.406-34.812-42.21-34.812-92.094h-1z" fill="#007200"/>
    <path d="m-359.94 491.88-0.125 0.96875s17.354 2.4956 34.75 17.406 34.812 42.242 34.812 92.125h1c0-50.117-17.583-77.817-35.188-92.906s-35.25-17.594-35.25-17.594z" fill="#007200"/>
    <path d="m-297.8 599.28c-11.959-4.1539-22.391-10.742-31.37-19.811-6.9276-6.9975-11.603-13.654-16.678-23.745-7.8796-15.668-11.713-31.586-13.069-54.265-0.41146-6.8823-0.33161-8.1726 0.48954-7.9099l5.8932 1.8708c11.292 3.5792 21.862 10.196 31.276 19.578 12.856 12.812 21.403 28.753 26.161 48.796 2.9503 12.427 5.265 37.673 3.4373 37.489-0.28946-0.029-3.0525-0.93026-6.14-2.0027z" fill="#14a204" stroke="#007200" stroke-width="2.8069"/>
   </g>
   <g transform="matrix(.90334 -.42893 .42893 .90334 -568.03 -306.72)">
    <path d="m-360.5 492.38c0 50.117 17.583 77.786 35.188 92.875s35.25 17.594 35.25 17.594l0.125-0.96875s-17.354-2.4956-34.75-17.406-34.812-42.21-34.812-92.094h-1z" fill="#007200"/>
    <path d="m-359.94 491.88-0.125 0.96875s17.354 2.4956 34.75 17.406 34.812 42.242 34.812 92.125h1c0-50.117-17.583-77.817-35.188-92.906s-35.25-17.594-35.25-17.594z" fill="#007200"/>
    <path d="m-297.8 599.28c-11.959-4.1539-22.391-10.742-31.37-19.811-6.9276-6.9975-11.603-13.654-16.678-23.745-7.8796-15.668-11.713-31.586-13.069-54.265-0.41146-6.8823-0.33161-8.1726 0.48954-7.9099l5.8932 1.8708c11.292 3.5792 21.862 10.196 31.276 19.578 12.856 12.812 21.403 28.753 26.161 48.796 2.9503 12.427 5.265 37.673 3.4373 37.489-0.28946-0.029-3.0525-0.93026-6.14-2.0027z" fill="#14a204" stroke="#007200" stroke-width="2.8069"/>
   </g>
   <g transform="matrix(1 0 0 -1 -199.94 815.21)">
    <path d="m-360.5 492.38c0 50.117 17.583 77.786 35.188 92.875s35.25 17.594 35.25 17.594l0.125-0.96875s-17.354-2.4956-34.75-17.406-34.812-42.21-34.812-92.094h-1z" fill="#007200"/>
    <path d="m-359.94 491.88-0.125 0.96875s17.354 2.4956 34.75 17.406 34.812 42.242 34.812 92.125h1c0-50.117-17.583-77.817-35.188-92.906s-35.25-17.594-35.25-17.594z" fill="#007200"/>
    <path d="m-297.8 599.28c-11.959-4.1539-22.391-10.742-31.37-19.811-6.9276-6.9975-11.603-13.654-16.678-23.745-7.8796-15.668-11.713-31.586-13.069-54.265-0.41146-6.8823-0.33161-8.1726 0.48954-7.9099l5.8932 1.8708c11.292 3.5792 21.862 10.196 31.276 19.578 12.856 12.812 21.403 28.753 26.161 48.796 2.9503 12.427 5.265 37.673 3.4373 37.489-0.28946-0.029-3.0525-0.93026-6.14-2.0027z" fill="#14a204" stroke="#007200" stroke-width="2.8069"/>
   </g>
   <g transform="matrix(.82628 -.56326 .56326 .82628 -651.47 -340.55)">
    <path d="m-360.5 492.38c0 50.117 17.583 77.786 35.188 92.875s35.25 17.594 35.25 17.594l0.125-0.96875s-17.354-2.4956-34.75-17.406-34.812-42.21-34.812-92.094h-1z" fill="#007200"/>
    <path d="m-359.94 491.88-0.125 0.96875s17.354 2.4956 34.75 17.406 34.812 42.242 34.812 92.125h1c0-50.117-17.583-77.817-35.188-92.906s-35.25-17.594-35.25-17.594z" fill="#007200"/>
    <path d="m-297.8 599.28c-11.959-4.1539-22.391-10.742-31.37-19.811-6.9276-6.9975-11.603-13.654-16.678-23.745-7.8796-15.668-11.713-31.586-13.069-54.265-0.41146-6.8823-0.33161-8.1726 0.48954-7.9099l5.8932 1.8708c11.292 3.5792 21.862 10.196 31.276 19.578 12.856 12.812 21.403 28.753 26.161 48.796 2.9503 12.427 5.265 37.673 3.4373 37.489-0.28946-0.029-3.0525-0.93026-6.14-2.0027z" fill="#14a204" stroke="#007200" stroke-width="2.8069"/>
   </g>
  </g>
 </g>
</svg>
